<svg width="255" height="44" viewBox="0 0 255 44" fill="none" xmlns="http://www.w3.org/2000/svg">
<rect x="1.5" y="1.5" width="252" height="40.1789" stroke="#E7E8EF" stroke-width="3"/>
<path d="M19.4074 32.6294L9.61539 10.2294H14.1274L22.8634 30.4854H20.2714L29.1034 10.2294H33.2634L23.5034 32.6294H19.4074ZM39.4671 19.5414H50.6031V22.9654H39.4671V19.5414ZM39.7871 29.1414H52.4271V32.6294H35.6271V10.2294H51.9791V13.7174H39.7871V29.1414ZM57.0646 32.6294V10.2294H61.2246V29.1094H72.9366V32.6294H57.0646ZM86.3106 32.9494C84.5613 32.9494 82.9506 32.6614 81.4786 32.0854C80.0066 31.5094 78.7266 30.7094 77.6386 29.6854C76.5506 28.6401 75.708 27.4241 75.1106 26.0374C74.5133 24.6294 74.2146 23.0934 74.2146 21.4294C74.2146 19.7654 74.5133 18.2401 75.1106 16.8534C75.708 15.4454 76.5506 14.2294 77.6386 13.2054C78.7266 12.1601 80.0066 11.3494 81.4786 10.7734C82.9506 10.1974 84.5506 9.90939 86.2786 9.90939C88.028 9.90939 89.628 10.1974 91.0786 10.7734C92.5506 11.3494 93.8306 12.1601 94.9186 13.2054C96.0066 14.2294 96.8493 15.4454 97.4466 16.8534C98.044 18.2401 98.3426 19.7654 98.3426 21.4294C98.3426 23.0934 98.044 24.6294 97.4466 26.0374C96.8493 27.4454 96.0066 28.6614 94.9186 29.6854C93.8306 30.7094 92.5506 31.5094 91.0786 32.0854C89.628 32.6614 88.0386 32.9494 86.3106 32.9494ZM86.2786 29.3014C87.4093 29.3014 88.4546 29.1094 89.4146 28.7254C90.3746 28.3414 91.2066 27.7974 91.9106 27.0934C92.6146 26.3681 93.1586 25.5361 93.5426 24.5974C93.948 23.6374 94.1506 22.5814 94.1506 21.4294C94.1506 20.2774 93.948 19.2321 93.5426 18.2934C93.1586 17.3334 92.6146 16.5014 91.9106 15.7974C91.2066 15.0721 90.3746 14.5174 89.4146 14.1334C88.4546 13.7494 87.4093 13.5574 86.2786 13.5574C85.148 13.5574 84.1026 13.7494 83.1426 14.1334C82.204 14.5174 81.372 15.0721 80.6466 15.7974C79.9426 16.5014 79.388 17.3334 78.9826 18.2934C78.5986 19.2321 78.4066 20.2774 78.4066 21.4294C78.4066 22.5601 78.5986 23.6054 78.9826 24.5654C79.388 25.5254 79.9426 26.3681 80.6466 27.0934C81.3506 27.7974 82.1826 28.3414 83.1426 28.7254C84.1026 29.1094 85.148 29.3014 86.2786 29.3014ZM102.752 32.6294V10.2294H106.176L115.968 26.5814H114.176L123.808 10.2294H127.232L127.264 32.6294H123.328L123.296 16.4054H124.128L115.936 30.0694H114.08L105.76 16.4054H106.72V32.6294H102.752ZM130.147 32.6294L140.227 10.2294H144.323L154.435 32.6294H150.083L141.411 12.4374H143.075L134.435 32.6294H130.147ZM134.787 27.4454L135.907 24.1814H148.003L149.123 27.4454H134.787ZM164.227 32.9494C162.478 32.9494 160.803 32.7041 159.203 32.2134C157.603 31.7014 156.334 31.0507 155.395 30.2614L156.835 27.0294C157.731 27.7334 158.841 28.3201 160.163 28.7894C161.486 29.2587 162.841 29.4934 164.227 29.4934C165.401 29.4934 166.35 29.3654 167.075 29.1094C167.801 28.8534 168.334 28.5121 168.675 28.0854C169.017 27.6374 169.187 27.1361 169.187 26.5814C169.187 25.8987 168.942 25.3547 168.451 24.9494C167.961 24.5227 167.321 24.1921 166.531 23.9574C165.763 23.7014 164.899 23.4667 163.939 23.2534C163.001 23.0401 162.051 22.7947 161.091 22.5174C160.153 22.2187 159.289 21.8454 158.499 21.3974C157.731 20.9281 157.102 20.3094 156.611 19.5414C156.121 18.7734 155.875 17.7921 155.875 16.5974C155.875 15.3814 156.195 14.2721 156.835 13.2694C157.497 12.2454 158.489 11.4347 159.811 10.8374C161.155 10.2187 162.851 9.90939 164.899 9.90939C166.243 9.90939 167.577 10.0801 168.899 10.4214C170.222 10.7627 171.374 11.2534 172.355 11.8934L171.043 15.1254C170.041 14.5281 169.006 14.0907 167.939 13.8134C166.873 13.5147 165.849 13.3654 164.867 13.3654C163.715 13.3654 162.777 13.5041 162.051 13.7814C161.347 14.0587 160.825 14.4214 160.483 14.8694C160.163 15.3174 160.003 15.8294 160.003 16.4054C160.003 17.0881 160.238 17.6427 160.707 18.0694C161.198 18.4747 161.827 18.7947 162.595 19.0294C163.385 19.2641 164.259 19.4987 165.219 19.7334C166.179 19.9467 167.129 20.1921 168.067 20.4694C169.027 20.7467 169.891 21.1094 170.659 21.5574C171.449 22.0054 172.078 22.6134 172.547 23.3814C173.038 24.1494 173.283 25.1201 173.283 26.2934C173.283 27.4881 172.953 28.5974 172.291 29.6214C171.651 30.6241 170.659 31.4347 169.315 32.0534C167.971 32.6507 166.275 32.9494 164.227 32.9494ZM181.64 32.6294V13.7494H174.216V10.2294H193.224V13.7494H185.8V32.6294H181.64ZM200.186 19.5414H211.322V22.9654H200.186V19.5414ZM200.506 29.1414H213.146V32.6294H196.346V10.2294H212.698V13.7174H200.506V29.1414ZM217.783 32.6294V10.2294H226.999C228.983 10.2294 230.679 10.5494 232.087 11.1894C233.517 11.8294 234.615 12.7467 235.383 13.9414C236.151 15.1361 236.535 16.5547 236.535 18.1974C236.535 19.8401 236.151 21.2587 235.383 22.4534C234.615 23.6267 233.517 24.5334 232.087 25.1734C230.679 25.7921 228.983 26.1014 226.999 26.1014H220.087L221.943 24.2134V32.6294H217.783ZM232.439 32.6294L226.775 24.5014H231.223L236.919 32.6294H232.439ZM221.943 24.6614L220.087 22.6774H226.807C228.642 22.6774 230.018 22.2827 230.935 21.4934C231.874 20.7041 232.343 19.6054 232.343 18.1974C232.343 16.7681 231.874 15.6694 230.935 14.9014C230.018 14.1334 228.642 13.7494 226.807 13.7494H220.087L221.943 11.7014V24.6614Z" fill="#E7E8EF"/>
</svg>
