<svg width="100" height="101" viewBox="0 0 100 101" fill="none" xmlns="http://www.w3.org/2000/svg">
<path d="M85.7143 100.342C85.213 100.342 84.7536 100.282 84.3358 100.163C83.9181 100.043 83.5004 99.7843 83.0827 99.3857L54.8872 72.4844V63.3977L61.2782 57.3H70.802L98.9975 84.2014C99.4152 84.6 99.6867 84.9985 99.812 85.397C99.9373 85.7956 100 86.234 100 86.7122C100 87.1905 99.9373 87.6288 99.812 88.0274C99.6867 88.4259 99.4152 88.8245 98.9975 89.223L88.3459 99.3857C87.9282 99.7843 87.5104 100.043 87.0927 100.163C86.675 100.282 86.2155 100.342 85.7143 100.342ZM85.7143 91.8534L91.1028 86.7122L66.0401 62.7999L60.6516 67.941L85.7143 91.8534ZM14.411 100.462C13.9098 100.462 13.4294 100.382 12.9699 100.223C12.5104 100.063 12.0718 99.7843 11.6541 99.3857L1.12782 89.3426C0.710108 88.944 0.417711 88.5256 0.250626 88.0872C0.0835419 87.6488 0 87.1905 0 86.7122C0 86.234 0.0835419 85.7956 0.250626 85.397C0.417711 84.9985 0.710108 84.6 1.12782 84.2014L29.3233 57.3H39.9749L44.7368 52.7567L22.807 31.8334H15.6642L0 16.8882L12.406 5.05162L28.0702 19.9968V26.8118L50 47.7351L66.2907 32.1921L57.8947 24.1815L64.9123 17.486H50.7519L48.4962 15.3339L64.5363 0.0300293L66.792 2.18214V15.6926L73.8095 8.99715L94.9875 29.2031C96.2406 30.3987 97.2222 31.7736 97.9323 33.3279C98.6424 34.8822 98.9975 36.5362 98.9975 38.2897C98.9975 39.8042 98.7469 41.2987 98.2456 42.7733C97.7444 44.2479 96.9507 45.6229 95.8647 46.8982L85.213 36.7355L78.1955 43.4309L71.6792 37.2137L45.2381 62.4412V72.4844L17.0426 99.3857C16.6249 99.7843 16.2072 100.063 15.7895 100.223C15.3718 100.382 14.9123 100.462 14.411 100.462ZM14.411 91.8534L39.4737 67.941L34.0852 62.7999L9.02256 86.7122L14.411 91.8534Z" fill="black"/>
</svg>
